# Blender v2.92.0 OBJ File: 'cube.blend'
# www.blender.org
mtllib cube.mtl
o Cube
v -4.031808 0.125852 3.079846
v -3.585745 0.111553 3.522524
v -4.474487 0.111553 2.633782
v -3.585745 28.502916 3.522524
v -4.017254 28.611553 3.065291
v -4.474487 28.502916 2.633782
v -4.031808 0.125852 -4.534797
v -4.474487 0.111553 -4.088733
v -3.585745 0.111553 -4.977476
v -4.017254 28.611553 -4.520243
v -3.585745 28.502916 -4.977476
v -4.474487 28.502916 -4.088733
v 3.582834 0.125852 3.079846
v 4.025513 0.111553 2.633782
v 3.136770 0.111553 3.522524
v 3.568280 28.611553 3.065291
v 3.136770 28.502916 3.522524
v 4.025513 28.502916 2.633782
v 3.582834 0.125852 -4.534797
v 3.136770 0.111553 -4.977476
v 4.025513 0.111553 -4.088733
v 3.568280 28.611553 -4.520243
v 4.025513 28.502916 -4.088733
v 3.136770 28.502916 -4.977476
vt 0.273889 -0.005549
vt 0.267538 0.997729
vt 0.039931 0.999328
vt 0.037751 -0.004017
vt 0.532292 -0.002413
vt 0.532015 1.005174
vt 0.305465 0.999388
vt 0.302760 0.001902
vt 0.479899 1.121821
vt 0.479881 1.357615
vt 0.256777 1.357597
vt 0.282176 1.380555
vt 0.997742 0.000552
vt 1.001890 0.998623
vt 0.779014 0.998999
vt 0.764162 0.001285
vt 0.738393 -0.007402
vt 0.746857 1.009082
vt 0.569117 1.000001
vt 0.558501 0.000091
vt 0.255377 -0.128471
vt 0.243385 -0.114324
vt 0.269526 -0.140461
vt 0.039931 1.201841
vt 0.017172 1.171779
vt -0.018955 1.100078
vt 0.481394 -0.132969
vt 0.467247 -0.144962
vt 0.493385 -0.118820
vt 0.729900 1.262353
vt 0.717208 1.275043
vt 0.743349 1.248906
vt 0.255359 -0.189518
vt 0.269507 -0.180611
vt 0.243369 -0.206752
vt 0.229900 1.167329
vt 0.217208 1.180020
vt 0.243350 1.153882
vt 0.477599 -0.094540
vt 0.490572 -0.078367
vt 0.465477 -0.134457
vt 0.479900 1.102831
vt 0.467208 1.115522
vt 0.493349 1.089384
vt 0.240311 0.187179
vt 0.014294 0.187162
vt 0.028443 0.175171
vt 0.226164 0.175187
vt 0.035382 -0.000889
vt 0.038784 0.997864
vt 0.006508 0.998623
vt 0.002360 0.000552
vt 0.979901 1.086959
vt 0.797590 1.171115
vt 0.784183 1.296369
vt 0.967210 1.078669
vt 0.243551 0.260560
vt 0.243569 0.031458
vt 0.255560 0.045607
vt 0.255544 0.243328
vt 0.729900 1.267729
vt 0.546123 1.511736
vt 0.564993 1.542697
vt 0.717210 1.254280
vt 0.535434 0.000488
vt 0.566429 0.997456
vt 0.058495 0.194929
vt 0.245390 0.193461
vt 0.243179 0.168276
vt 0.061681 0.170195
vt 0.479899 1.062680
vt 0.282176 1.321414
vt 0.305465 1.429505
vt 0.467210 1.035618
vt 0.255377 -0.226693
vt 0.277620 -0.166111
vt 0.262657 -0.175257
vt 0.243385 -0.212546
vt 0.229900 1.090267
vt -0.008538 1.441595
vt 0.002837 1.472096
vt 0.217210 1.076818
vt 0.247720 0.499318
vt 0.076209 0.499277
vt 0.075297 0.275713
vt 0.243535 0.279450
vn 0.0000 0.0000 1.0000
vn 1.0000 0.0000 0.0000
vn 0.0000 1.0000 0.0000
vn -1.0000 0.0000 0.0000
vn 0.0000 0.0000 -1.0000
vn 0.6974 0.1651 -0.6974
vn -0.6974 0.1651 0.6974
vn 0.6974 0.1651 0.6974
vn -0.6974 0.1651 -0.6974
vn 0.0323 -0.9995 0.0000
vn -0.7071 0.0000 0.7071
vn -0.2312 0.9729 0.0000
vn -0.7071 0.0000 -0.7071
vn 0.0000 -0.9995 0.0323
vn 0.0000 0.9729 -0.2312
vn 0.7071 0.0000 -0.7071
vn -0.0323 -0.9995 0.0000
vn 0.2312 0.9729 0.0000
vn 0.7071 0.0000 0.7071
vn 0.0000 -0.9995 -0.0323
vn 0.0000 0.9729 0.2312
vn 0.0000 -1.0000 0.0000
usemtl Material
s off
f 15/1/1 17/2/1 4/3/1 2/4/1
f 21/5/2 23/6/2 18/7/2 14/8/2
f 22/9/3 10/10/3 5/11/3 16/12/3
f 3/13/4 6/14/4 12/15/4 8/16/4
f 9/17/5 11/18/5 24/19/5 20/20/5
f 1/21/6 2/22/6 3/23/6
f 4/24/7 5/25/7 6/26/7
f 7/27/8 8/28/8 9/29/8
f 10/30/9 11/31/9 12/32/9
f 13/33/9 14/34/9 15/35/9
f 16/36/8 17/37/8 18/38/8
f 19/39/7 20/40/7 21/41/7
f 22/42/6 23/43/6 24/44/6
f 7/45/10 1/46/10 3/47/10 8/48/10
f 2/49/11 4/50/11 6/51/11 3/52/11
f 5/53/12 10/54/12 12/55/12 6/56/12
f 11/18/13 9/17/13 8/16/13 12/15/13
f 19/57/14 7/58/14 9/59/14 20/60/14
f 10/61/15 22/62/15 24/63/15 11/64/15
f 23/6/16 21/65/16 20/20/16 24/66/16
f 13/67/17 19/68/17 21/69/17 14/70/17
f 22/71/18 16/72/18 18/73/18 23/74/18
f 17/2/19 15/1/19 14/8/19 18/7/19
f 1/75/20 13/76/20 15/77/20 2/78/20
f 16/79/21 5/80/21 4/81/21 17/82/21
f 7/83/22 19/84/22 13/85/22 1/86/22
o Cube.001_Cube.002
v -4.031808 28.503418 3.079846
v -3.585745 28.502916 3.522524
v -4.474487 28.502916 2.633782
v -3.585745 29.499105 3.522524
v -4.017254 29.502916 3.065291
v -4.474487 29.499105 2.633782
v -4.031808 28.503418 -4.534797
v -4.474487 28.502916 -4.088733
v -3.585745 28.502916 -4.977476
v -4.017254 29.502916 -4.520243
v -3.585745 29.499105 -4.977476
v -4.474487 29.499105 -4.088733
v 3.582834 28.503418 3.079846
v 4.025513 28.502916 2.633782
v 3.136770 28.502916 3.522524
v 3.568280 29.502916 3.065291
v 3.136770 29.499105 3.522524
v 4.025513 29.499105 2.633782
v 3.582834 28.503418 -4.534797
v 3.136770 28.502916 -4.977476
v 4.025513 28.502916 -4.088733
v 3.568280 29.502916 -4.520243
v 4.025513 29.499105 -4.088733
v 3.136770 29.499105 -4.977476
vt -0.109777 0.996090
vt -0.000408 0.994017
vt -0.000380 1.663616
vt -0.121060 1.659547
vt -0.119656 0.145364
vt 0.000125 0.147372
vt -0.000415 0.816970
vt -0.110575 0.819473
vt 0.091200 0.104388
vt 0.889735 0.104354
vt 0.889767 0.859914
vt 0.091231 0.859947
vt -0.081070 -1.537382
vt -0.000514 -1.545919
vt -0.000486 -0.876320
vt -0.123259 -0.868005
vt -0.116879 -0.691080
vt -0.000478 -0.699273
vt 0.011416 -0.029675
vt -0.104754 -0.032054
vt -1.564571 0.864949
vt -1.516656 0.905557
vt -1.605183 0.817037
vt 0.002184 1.706596
vt -0.000376 1.752140
vt -1.564602 0.099524
vt -1.605211 0.147439
vt -1.516691 0.058912
vt 0.045063 -0.742256
vt 0.088045 -0.699277
vt -0.000482 -0.787797
vt -0.788696 0.864917
vt -0.758537 0.817002
vt -0.847057 0.905529
vt 0.045133 0.951035
vt 0.088115 0.994014
vt -0.000412 0.905494
vt -0.788727 0.099492
vt -0.847092 0.058884
vt -0.758565 0.147404
vt 0.045098 0.104390
vt 0.088080 0.147368
vt -0.000447 0.058849
vt -0.070619 -1.640883
vt -0.000517 -1.634442
vt 0.027555 -1.588901
vt 0.027587 -0.833341
vt -0.309927 0.097501
vt -0.788130 0.058657
vt 0.033821 0.013304
vt -0.441244 0.866413
vt -0.784827 0.905759
vn 0.0000 0.0000 1.0000
vn 1.0000 0.0000 0.0000
vn 0.0000 1.0000 0.0000
vn -1.0000 0.0000 0.0000
vn 0.0000 0.0000 -1.0000
vn 0.1451 0.9789 -0.1440
vn -0.1450 0.9787 0.1450
vn 0.1451 0.9789 0.1440
vn -0.1450 0.9787 -0.1450
vn -0.1450 0.9787 -0.1452
vn 0.1450 0.9787 0.1450
vn -0.1450 0.9787 0.1452
vn 0.1450 0.9787 -0.1450
vn 0.0011 -1.0000 0.0000
vn -0.7071 0.0000 0.7071
vn -0.0083 1.0000 0.0000
vn -0.7071 0.0000 -0.7071
vn 0.0000 -1.0000 0.0011
vn 0.0000 1.0000 -0.0083
vn 0.7071 0.0000 -0.7071
vn -0.0011 -1.0000 0.0000
vn 0.0083 1.0000 0.0000
vn 0.7071 0.0000 0.7071
vn 0.0000 -1.0000 -0.0011
vn 0.0000 1.0000 0.0083
vn 0.0000 -1.0000 0.0000
usemtl Material.001
s off
f 39/87/23 41/88/23 28/89/23 26/90/23
f 45/91/24 47/92/24 42/93/24 38/94/24
f 46/95/25 34/96/25 29/97/25 40/98/25
f 27/99/26 30/100/26 36/101/26 32/102/26
f 33/103/27 35/104/27 48/105/27 44/106/27
f 25/107/28 26/108/28 27/109/28
f 28/89/29 29/110/29 30/111/29
f 31/112/30 32/113/30 33/114/30
f 34/115/31 35/116/31 36/117/31
f 37/118/32 38/119/32 39/120/32
f 40/121/33 41/122/33 42/123/33
f 43/124/34 44/125/34 45/126/34
f 46/127/35 47/128/35 48/129/35
f 31/112/36 25/107/36 27/109/36 32/113/36
f 26/130/37 28/131/37 30/100/37 27/99/37
f 29/132/38 34/133/38 36/101/38 30/100/38
f 35/104/39 33/103/39 32/102/39 36/101/39
f 43/134/40 31/112/40 33/114/40 44/135/40
f 34/115/41 46/136/41 48/105/41 35/104/41
f 47/92/42 45/91/42 44/106/42 48/105/42
f 37/137/43 43/134/43 45/91/43 38/94/43
f 46/95/44 40/98/44 42/93/44 47/92/44
f 41/88/45 39/87/45 38/94/45 42/93/45
f 25/107/46 37/137/46 39/138/46 26/108/46
f 40/121/47 29/110/47 28/89/47 41/88/47
f 31/112/48 43/134/48 37/137/48 25/107/48
